<mxfile host="app.diagrams.net" modified="2023-06-21T09:23:05.795Z" agent="Mozilla/5.0 (Windows NT 10.0; Win64; x64) AppleWebKit/537.36 (KHTML, like Gecko) Chrome/114.0.0.0 Safari/537.36 Edg/114.0.1823.51" etag="rjisyncM-l5RkFGSj7yZ" version="21.3.7" type="github">
  <diagram name="Page-1" id="WjCeue9oNPRDExThyrDB">
    <mxGraphModel dx="386" dy="393" grid="1" gridSize="10" guides="1" tooltips="1" connect="1" arrows="1" fold="1" page="1" pageScale="1" pageWidth="850" pageHeight="1100" math="0" shadow="0">
      <root>
        <mxCell id="0" />
        <mxCell id="1" parent="0" />
        <mxCell id="Q8-kpdwrW5LMP03cHDGk-1" value="" style="rounded=0;whiteSpace=wrap;html=1;" vertex="1" parent="1">
          <mxGeometry x="190" y="170" width="220" height="320" as="geometry" />
        </mxCell>
        <mxCell id="Q8-kpdwrW5LMP03cHDGk-2" value="&lt;b&gt;&lt;font style=&quot;font-size: 14px;&quot;&gt;Flight Reservation System&lt;/font&gt;&lt;/b&gt;" style="text;html=1;strokeColor=none;fillColor=none;align=center;verticalAlign=middle;whiteSpace=wrap;rounded=0;" vertex="1" parent="1">
          <mxGeometry x="207.5" y="180" width="185" height="30" as="geometry" />
        </mxCell>
        <mxCell id="Q8-kpdwrW5LMP03cHDGk-3" value="Customer" style="shape=umlActor;verticalLabelPosition=bottom;verticalAlign=top;html=1;outlineConnect=0;" vertex="1" parent="1">
          <mxGeometry x="120" y="280" width="30" height="60" as="geometry" />
        </mxCell>
        <mxCell id="Q8-kpdwrW5LMP03cHDGk-7" value="Flight reservation" style="ellipse;whiteSpace=wrap;html=1;" vertex="1" parent="1">
          <mxGeometry x="245" y="220" width="110" height="40" as="geometry" />
        </mxCell>
        <mxCell id="Q8-kpdwrW5LMP03cHDGk-8" value="Airline staff" style="shape=umlActor;verticalLabelPosition=bottom;verticalAlign=top;html=1;outlineConnect=0;" vertex="1" parent="1">
          <mxGeometry x="120" y="405" width="30" height="60" as="geometry" />
        </mxCell>
        <mxCell id="Q8-kpdwrW5LMP03cHDGk-9" value="Update flight schedules&amp;nbsp;" style="ellipse;whiteSpace=wrap;html=1;" vertex="1" parent="1">
          <mxGeometry x="240" y="410" width="120" height="50" as="geometry" />
        </mxCell>
        <mxCell id="Q8-kpdwrW5LMP03cHDGk-10" value="" style="endArrow=classic;html=1;rounded=0;entryX=0;entryY=0.5;entryDx=0;entryDy=0;" edge="1" parent="1" source="Q8-kpdwrW5LMP03cHDGk-3" target="Q8-kpdwrW5LMP03cHDGk-7">
          <mxGeometry width="50" height="50" relative="1" as="geometry">
            <mxPoint x="280" y="340" as="sourcePoint" />
            <mxPoint x="330" y="290" as="targetPoint" />
          </mxGeometry>
        </mxCell>
        <mxCell id="Q8-kpdwrW5LMP03cHDGk-11" value="" style="endArrow=classic;html=1;rounded=0;entryX=0;entryY=0.5;entryDx=0;entryDy=0;" edge="1" parent="1" source="Q8-kpdwrW5LMP03cHDGk-8" target="Q8-kpdwrW5LMP03cHDGk-9">
          <mxGeometry width="50" height="50" relative="1" as="geometry">
            <mxPoint x="280" y="470" as="sourcePoint" />
            <mxPoint x="330" y="420" as="targetPoint" />
          </mxGeometry>
        </mxCell>
        <mxCell id="Q8-kpdwrW5LMP03cHDGk-12" value="Select preferred seats" style="ellipse;whiteSpace=wrap;html=1;" vertex="1" parent="1">
          <mxGeometry x="245" y="290" width="110" height="40" as="geometry" />
        </mxCell>
        <mxCell id="Q8-kpdwrW5LMP03cHDGk-13" value="Access flight schedules" style="ellipse;whiteSpace=wrap;html=1;" vertex="1" parent="1">
          <mxGeometry x="245" y="350" width="110" height="40" as="geometry" />
        </mxCell>
        <mxCell id="Q8-kpdwrW5LMP03cHDGk-14" value="" style="endArrow=classic;html=1;rounded=0;entryX=0;entryY=0.5;entryDx=0;entryDy=0;" edge="1" parent="1" source="Q8-kpdwrW5LMP03cHDGk-3">
          <mxGeometry width="50" height="50" relative="1" as="geometry">
            <mxPoint x="155" y="310" as="sourcePoint" />
            <mxPoint x="245" y="310" as="targetPoint" />
          </mxGeometry>
        </mxCell>
        <mxCell id="Q8-kpdwrW5LMP03cHDGk-15" value="" style="endArrow=classic;html=1;rounded=0;entryX=0;entryY=0.5;entryDx=0;entryDy=0;" edge="1" parent="1" source="Q8-kpdwrW5LMP03cHDGk-3" target="Q8-kpdwrW5LMP03cHDGk-13">
          <mxGeometry width="50" height="50" relative="1" as="geometry">
            <mxPoint x="160" y="445" as="sourcePoint" />
            <mxPoint x="250" y="445" as="targetPoint" />
          </mxGeometry>
        </mxCell>
      </root>
    </mxGraphModel>
  </diagram>
</mxfile>
